# Blender 4.3.2
# www.blender.org
o Cone
v -0.923880 3.500000 0.382683
v -0.923880 3.500000 -0.382683
v -0.382683 3.500000 -0.923879
v 0.382683 3.500000 -0.923880
v 0.923880 3.500000 -0.382683
v 0.923880 3.500000 0.382683
v 0.382683 3.500000 0.923880
v -0.382683 3.500000 0.923879
v 0.000000 5.500000 -0.000000
v -0.923880 2.502685 0.382684
v -0.923880 2.502685 -0.382683
v -0.650556 2.502685 -1.570581
v 0.650556 2.502685 -1.570581
v 0.923880 2.502685 -0.382683
v 0.923880 2.502685 0.382683
v 0.650556 2.502685 1.570581
v -0.650556 2.502685 1.570581
v -0.923880 -1.497314 0.382684
v -0.923880 -1.497314 -0.382683
v -0.650556 -1.497314 -1.570581
v 0.650556 -1.497314 -1.570581
v 0.923880 -1.497314 -0.382683
v 0.923880 -1.497314 0.382684
v 0.650556 -1.497314 1.570582
v -0.650556 -1.497314 1.570582
v -0.000000 2.502685 -1.570581
v -0.000000 -1.497314 -1.570581
v -0.000000 2.502685 1.570581
v -0.000000 -1.497314 1.570582
v 0.923880 1.449912 -0.382683
v 0.650556 1.449912 -1.570581
v -0.650556 1.449912 -1.570581
v -0.923880 1.449912 -0.382683
v -0.650556 1.449912 1.570582
v 0.650556 1.449912 1.570581
v 0.923880 1.449912 0.382683
v -0.923880 1.449912 0.382684
v -0.000000 1.449912 -1.570581
v -0.000000 1.449912 1.570581
v -0.000000 -1.497314 -6.570581
v 0.650556 -1.497314 -6.570581
v -0.000000 1.449911 -6.570581
v 0.650556 1.449911 -6.570581
v 0.923880 -1.497314 -0.382683
v 0.923880 -1.497314 0.382684
v 0.923880 1.449912 -0.382683
v 0.923880 1.449912 0.382683
v 1.656517 -0.439041 -0.237705
v 1.656517 -0.439041 0.237705
v 1.656517 0.891638 -0.237705
v 1.656517 0.891638 0.237705
v -0.000000 1.449912 -3.070581
v 0.650556 -1.497314 6.570581
v 0.000001 -1.497314 6.570581
v 0.000000 1.449912 6.570581
v 0.650556 1.449912 6.570581
v 0.000000 1.449912 3.070581
v -0.735662 -2.427219 0.554722
v -0.735662 -2.427219 -0.554721
v -0.347477 -2.427219 -0.838882
v 0.347477 -2.427219 -0.838882
v 0.735662 -2.427219 -0.554721
v 0.735662 -2.427219 0.554722
v 0.347477 -2.427219 0.838883
v -0.347477 -2.427219 0.838883
v -0.735662 -4.806632 0.554721
v -0.735662 -4.806632 -0.554721
v -0.347477 -4.806632 -0.838883
v 0.347476 -4.806632 -0.838883
v 0.735662 -4.806632 -0.554721
v 0.735662 -4.806632 0.554721
v 0.347476 -4.806632 0.838883
v -0.347477 -4.806632 0.838883
v -0.000000 -5.143538 -0.000000
v -0.347477 -3.172496 0.838883
v 0.347477 -3.172496 0.838883
v -0.735662 -3.172496 0.554722
v 0.735662 -3.172496 0.554722
v 0.735662 -3.172496 -0.554721
v -0.347477 -3.172496 -0.838882
v -0.735662 -3.172496 -0.554721
v 0.347476 -3.172496 -0.838882
v 0.735662 -4.806632 -0.484907
v 0.735662 -4.806632 0.484907
v 0.735662 -3.172496 0.484907
v 0.735662 -3.172496 -0.484907
v 0.250000 -4.806632 0.838883
v 0.250000 -3.172496 0.838883
v 0.250000 -4.806632 -0.838883
v 0.250000 -3.172496 -0.838882
v 1.735662 -4.806632 0.484907
v 1.735662 -4.806632 0.554721
v 1.735662 -3.922496 0.554722
v 1.735662 -3.922496 0.484907
v 0.735662 -4.806632 -0.554721
v 0.735662 -3.172496 -0.554721
v 0.735662 -3.172496 -0.484907
v 0.735662 -4.806632 -0.484907
v 1.735662 -4.806632 -0.554721
v 1.735662 -3.922496 -0.554721
v 1.735662 -3.922496 -0.484907
v 1.735662 -4.806632 -0.484907
v 0.347476 -4.806632 2.838882
v 0.347476 -3.922496 2.838883
v 0.250000 -3.922496 2.838883
v 0.250000 -4.806632 2.838882
v 0.250000 -4.806632 -2.838882
v 0.347476 -4.806632 -2.838882
v 0.347476 -3.922496 -2.838882
v 0.250000 -3.922496 -2.838882
v 0.650556 1.449912 -1.570581
v 0.650556 2.502685 -1.570581
v 0.650556 1.449911 -6.570581
v -0.000000 2.502685 -1.570581
v -0.000000 1.449912 -1.570581
v -0.000000 1.449912 -3.070581
v -0.000000 1.449911 -6.570581
v 0.650556 1.449912 1.570581
v 0.650556 2.502685 1.570581
v 0.650556 1.449912 6.570581
v -0.000000 2.502685 1.570581
v -0.000000 1.449912 1.570581
v 0.000000 1.449912 3.070581
v 0.000000 1.449912 6.570581
v 0.650556 1.449912 -1.570581
v 0.650556 2.502685 -1.570581
v 0.650556 1.449911 -6.570581
v 0.650556 1.449912 -1.570581
v 0.650556 2.502685 -1.570581
v 0.650556 1.449911 -6.570581
v 0.650556 1.449912 -1.570581
v 0.650556 2.502685 -1.570581
v 0.650556 1.449911 -6.570581
v -0.000000 2.502685 -1.570581
v -0.000000 1.449912 -1.570581
v -0.000000 1.449912 -3.070581
v -0.000000 1.449911 -6.570581
v -0.000000 2.502685 1.570581
v -0.000000 1.449912 1.570581
v 0.000000 1.449912 3.070581
v 0.000000 1.449912 6.570581
v 0.650556 1.449912 1.570581
v 0.650556 2.502685 1.570581
v 0.650556 1.449912 6.570581
vn -0.9078 0.4194 -0.0000
vn -0.6419 0.4194 -0.6419
vn -0.0000 0.4194 -0.9078
vn 0.6419 0.4194 -0.6419
vn 0.9078 0.4194 -0.0000
vn 0.6419 0.4194 0.6419
vn -0.9026 0.3771 0.2077
vn -0.0000 0.4194 0.9078
vn -0.6419 0.4194 0.6419
vn 0.9745 -0.0000 -0.2242
vn -0.0000 0.5441 0.8390
vn 0.7071 -0.0000 0.7071
vn -1.0000 -0.0000 -0.0000
vn 1.0000 -0.0000 -0.0000
vn 0.9026 0.3771 -0.2077
vn -0.0000 0.5441 -0.8390
vn -0.7071 -0.0000 -0.7071
vn -0.9745 -0.0000 -0.2242
vn -0.0000 -0.0000 1.0000
vn -0.0000 1.0000 -0.0000
vn -0.9745 -0.0000 0.2242
vn 0.9745 -0.0000 0.2242
vn -0.0000 -0.0000 -1.0000
vn -0.0000 -1.0000 -0.0000
vn 0.1941 -0.0000 0.9810
vn 0.8222 -0.5692 -0.0000
vn 0.6061 0.7954 -0.0000
vn 0.1941 -0.0000 -0.9810
vn -0.8992 -0.1985 -0.3900
vn -0.8992 -0.1985 0.3900
vn 0.8737 -0.4430 -0.2010
vn -0.9801 -0.1984 -0.0000
vn -0.0000 -0.6184 0.7859
vn -0.8737 -0.4430 0.2010
vn 0.9801 -0.1984 -0.0000
vn -0.5904 0.0297 -0.8066
vn 0.5904 0.0297 0.8066
vn -0.0000 -0.6184 -0.7859
vn 0.2107 -0.9342 0.2879
vn -0.5907 -0.0000 0.8069
vn -0.5907 -0.0000 -0.8069
vn 0.5907 -0.0000 0.8069
vn 0.5907 -0.0000 -0.8069
vn 0.2107 -0.9342 -0.2879
vn -0.4164 -0.9092 -0.0000
vn -0.0000 -0.9280 0.3727
vn -0.2107 -0.9342 0.2879
vn 0.4164 -0.9092 -0.0000
vn -0.2107 -0.9342 -0.2879
vn -0.0000 -0.9280 -0.3727
vn 0.6000 0.8000 -0.0000
vn -0.0000 0.9363 0.3511
vn -0.0000 0.9363 -0.3511
vn -0.7071 -0.0000 0.7071
vn 0.9026 0.3771 0.2077
vn 0.7071 -0.0000 -0.7071
vn -0.9026 0.3771 -0.2077
vn -0.1577 -0.9853 0.0653
vn 0.5904 0.0297 -0.8066
vn -0.5904 0.0297 0.8066
vn -0.8737 -0.4430 -0.2010
vn 0.8737 -0.4430 0.2010
vt 0.250000 0.490000
vt 0.250000 0.250000
vt 0.419706 0.419706
vt 0.490000 0.250000
vt 0.419706 0.080294
vt 0.250000 0.010000
vt 0.080294 0.080294
vt 0.010000 0.250000
vt 0.080294 0.419706
vt 0.045147 0.334853
vt 0.454853 0.165147
vt 0.490000 0.250000
vt 0.010000 0.250000
vt 0.954853 0.165147
vt 0.919706 0.080294
vt 0.000000 0.000000
vt 0.580294 0.080294
vt 0.750000 0.010000
vt 0.510000 0.250000
vt 0.545147 0.334853
vt 0.080294 0.419706
vt 0.295147 0.334853
vt 0.704853 0.165147
vt 0.693431 0.033431
vt 0.636863 0.056863
vt 0.636863 0.056863
s 0
f 1/1/1 9/2/1 2/3/1
f 2/3/2 9/2/2 3/4/2
f 3/4/3 9/2/3 4/5/3
f 4/5/4 9/2/4 5/6/4
f 5/6/5 9/2/5 6/7/5
f 6/7/6 9/2/6 7/8/6
f 8/9/7 10/1/7 17/9/7
f 7/8/8 9/2/8 8/9/8
f 8/9/9 9/2/9 1/1/9
f 30/6/10 21/5/10 31/5/10
f 8/9/11 28/10/11 16/8/11
f 7/8/12 15/7/12 6/7/12
f 2/3/13 10/1/13 1/1/13
f 6/7/14 14/6/14 5/6/14
f 4/5/15 14/6/15 13/5/15
f 4/5/16 26/11/16 12/4/16
f 3/4/17 11/3/17 2/3/17
f 32/12/18 19/3/18 33/3/18
f 34/9/19 29/10/19 39/10/19
f 30/6/20 47/7/20 46/6/20
f 31/5/20 42/11/20 52/11/20
f 33/3/13 18/1/13 37/1/13
f 37/1/21 25/9/21 34/9/21
f 36/7/22 24/8/22 23/7/22
f 32/12/23 27/11/23 20/4/23
f 29/10/13 55/10/13 57/10/13
f 28/10/19 35/13/19 16/8/19
f 12/4/23 38/11/23 32/12/23
f 16/8/22 36/7/22 15/7/22
f 17/9/21 37/1/21 34/9/21
f 10/1/13 33/3/13 37/1/13
f 13/5/23 38/11/23 26/11/23
f 15/7/14 30/6/14 14/6/14
f 17/9/19 39/10/19 28/10/19
f 12/4/18 33/3/18 11/3/18
f 14/6/10 31/5/10 13/5/10
f 43/5/23 40/11/23 42/11/23
f 27/14/24 41/15/24 21/15/24
f 38/11/13 42/11/13 40/11/13
f 21/5/14 43/5/14 31/5/14
f 43/16/20 112/16/20 113/16/20
f 26/11/20 115/11/20 38/11/20
f 47/7/25 49/7/25 51/7/25
f 36/7/20 45/7/20 47/7/20
f 22/6/20 46/6/20 44/6/20
f 23/17/20 44/18/20 45/17/20
f 51/7/14 48/6/14 50/6/14
f 44/18/26 49/17/26 45/17/26
f 47/7/27 50/6/27 46/6/27
f 46/6/28 48/6/28 44/6/28
f 32/16/29 52/16/29 27/16/29
f 52/16/20 32/16/20 38/16/20
f 55/10/19 53/8/19 56/13/19
f 39/10/20 57/10/20 56/13/20
f 24/19/24 54/20/24 29/20/24
f 35/13/14 53/8/14 24/8/14
f 16/16/20 120/16/20 119/16/20
f 57/10/20 124/10/20 123/10/20
f 34/16/30 29/16/30 57/16/30
f 34/16/20 57/16/20 39/16/20
f 75/21/19 87/22/19 88/22/19
f 22/6/31 61/5/31 21/5/31
f 18/1/32 59/3/32 58/1/32
f 29/10/33 65/9/33 64/19/33
f 18/1/34 65/9/34 25/9/34
f 23/17/35 62/18/35 22/18/35
f 19/3/36 60/4/36 59/3/36
f 23/7/37 64/8/37 63/7/37
f 27/14/38 61/15/38 20/4/38
f 71/7/39 72/8/39 74/7/39
f 77/1/40 73/9/40 75/21/40
f 71/7/19 93/7/19 78/7/19
f 80/4/41 67/3/41 81/3/41
f 89/23/13 110/23/13 107/23/13
f 76/8/42 71/7/42 78/7/42
f 82/5/43 70/6/43 69/5/43
f 81/3/13 66/1/13 77/1/13
f 69/5/44 70/6/44 74/5/44
f 66/1/45 67/3/45 74/1/45
f 87/22/46 74/19/46 72/19/46
f 73/9/47 66/1/47 74/9/47
f 83/24/48 71/17/48 74/18/48
f 67/3/49 68/4/49 74/3/49
f 89/23/50 74/4/50 68/4/50
f 59/3/13 77/1/13 58/1/13
f 62/6/43 82/5/43 61/5/43
f 64/8/42 78/7/42 63/7/42
f 61/15/23 90/23/23 80/4/23
f 60/4/41 81/3/41 59/3/41
f 63/17/14 85/25/14 86/24/14
f 58/1/40 75/21/40 65/9/40
f 65/9/19 88/22/19 76/19/19
f 86/24/20 98/24/20 97/24/20
f 85/25/14 83/24/14 86/24/14
f 87/22/24 103/19/24 106/22/24
f 90/23/23 68/4/23 80/4/23
f 93/17/14 91/26/14 94/25/14
f 78/17/51 94/25/51 85/25/51
f 84/26/24 92/17/24 71/17/24
f 84/26/23 94/25/23 91/26/23
f 98/24/24 99/18/24 102/24/24
f 83/24/20 95/18/20 98/24/20
f 70/6/20 96/6/20 95/6/20
f 79/18/20 97/24/20 96/18/20
f 101/24/14 99/18/14 100/18/14
f 95/6/23 100/6/23 99/6/23
f 98/24/19 101/24/19 97/24/19
f 97/24/51 100/18/51 96/18/51
f 105/22/19 103/19/19 104/19/19
f 72/8/14 104/8/14 103/8/14
f 76/19/52 105/22/52 104/19/52
f 87/22/13 105/22/13 88/22/13
f 109/15/23 107/23/23 110/23/23
f 89/23/24 108/15/24 69/15/24
f 82/15/53 110/23/53 90/23/53
f 69/5/14 109/5/14 82/5/14
f 112/16/20 127/16/20 126/16/20
f 31/5/20 113/5/20 111/5/20
f 13/5/20 111/5/20 112/5/20
f 114/11/13 116/11/13 115/11/13
f 52/11/20 117/11/20 42/11/20
f 42/16/20 114/16/20 26/16/20
f 38/11/20 116/11/20 52/11/20
f 119/8/14 120/13/14 118/13/14
f 56/13/20 118/13/20 120/13/20
f 35/13/20 119/8/20 118/13/20
f 121/10/13 123/10/13 124/10/13
f 55/16/20 121/16/20 124/16/20
f 39/10/20 123/10/20 122/10/20
f 28/10/20 122/10/20 121/10/20
f 125/5/14 127/5/14 126/5/14
f 113/5/20 125/5/20 127/5/20
f 111/5/20 126/5/20 125/5/20
f 128/5/14 130/5/14 129/5/14
f 131/5/13 132/5/13 133/5/13
f 134/11/14 136/11/14 137/11/14
f 138/10/14 140/10/14 139/10/14
f 143/8/13 142/13/13 144/13/13
f 8/9/54 1/1/54 10/1/54
f 30/6/10 22/6/10 21/5/10
f 16/8/11 7/8/11 8/9/11
f 8/9/11 17/9/11 28/10/11
f 7/8/55 16/8/55 15/7/55
f 2/3/13 11/3/13 10/1/13
f 6/7/14 15/7/14 14/6/14
f 4/5/56 5/6/56 14/6/56
f 12/4/16 3/4/16 4/5/16
f 4/5/16 13/5/16 26/11/16
f 3/4/57 12/4/57 11/3/57
f 32/12/18 20/4/18 19/3/18
f 34/9/19 25/9/19 29/10/19
f 30/6/20 36/7/20 47/7/20
f 52/11/20 38/11/20 31/5/20
f 31/5/20 43/5/20 42/11/20
f 33/3/13 19/3/13 18/1/13
f 37/1/21 18/1/21 25/9/21
f 36/7/22 35/13/22 24/8/22
f 32/12/23 38/11/23 27/11/23
f 57/10/13 39/10/13 29/10/13
f 29/10/13 54/10/13 55/10/13
f 28/10/19 39/10/19 35/13/19
f 12/4/23 26/11/23 38/11/23
f 16/8/22 35/13/22 36/7/22
f 17/9/21 10/1/21 37/1/21
f 10/1/13 11/3/13 33/3/13
f 13/5/23 31/5/23 38/11/23
f 15/7/14 36/7/14 30/6/14
f 17/9/19 34/9/19 39/10/19
f 12/4/18 32/12/18 33/3/18
f 14/6/10 30/6/10 31/5/10
f 43/5/23 41/5/23 40/11/23
f 27/14/24 40/14/24 41/15/24
f 40/11/13 27/11/13 38/11/13
f 38/11/58 52/11/58 42/11/58
f 21/5/14 41/5/14 43/5/14
f 43/16/20 13/16/20 112/16/20
f 26/11/20 114/11/20 115/11/20
f 47/7/25 45/7/25 49/7/25
f 36/7/20 23/7/20 45/7/20
f 22/6/20 30/6/20 46/6/20
f 23/17/20 22/18/20 44/18/20
f 51/7/14 49/7/14 48/6/14
f 44/18/26 48/18/26 49/17/26
f 47/7/27 51/7/27 50/6/27
f 46/6/28 50/6/28 48/6/28
f 55/10/19 54/10/19 53/8/19
f 56/13/20 35/13/20 39/10/20
f 57/10/20 55/10/20 56/13/20
f 24/19/24 53/19/24 54/20/24
f 35/13/14 56/13/14 53/8/14
f 16/16/20 56/16/20 120/16/20
f 57/10/20 55/10/20 124/10/20
f 75/21/19 73/9/19 87/22/19
f 22/6/59 62/6/59 61/5/59
f 18/1/32 19/3/32 59/3/32
f 64/19/33 24/19/33 29/10/33
f 29/10/33 25/9/33 65/9/33
f 18/1/60 58/1/60 65/9/60
f 23/17/35 63/17/35 62/18/35
f 19/3/61 20/4/61 60/4/61
f 23/7/62 24/8/62 64/8/62
f 27/14/38 21/15/38 61/15/38
f 61/15/38 60/4/38 20/4/38
f 77/1/40 66/1/40 73/9/40
f 71/7/19 92/7/19 93/7/19
f 80/4/41 68/4/41 67/3/41
f 89/23/13 90/23/13 110/23/13
f 76/8/42 72/8/42 71/7/42
f 82/5/43 79/6/43 70/6/43
f 81/3/13 67/3/13 66/1/13
f 87/22/46 73/9/46 74/19/46
f 74/18/48 70/18/48 83/24/48
f 83/24/20 84/26/20 71/17/20
f 89/23/50 69/15/50 74/4/50
f 59/3/13 81/3/13 77/1/13
f 62/6/43 79/6/43 82/5/43
f 64/8/42 76/8/42 78/7/42
f 80/4/23 60/4/23 61/15/23
f 61/15/23 82/15/23 90/23/23
f 60/4/41 80/4/41 81/3/41
f 79/18/14 62/18/14 63/17/14
f 63/17/14 78/17/14 85/25/14
f 86/24/14 79/18/14 63/17/14
f 58/1/40 77/1/40 75/21/40
f 76/19/19 64/19/19 65/9/19
f 65/9/19 75/21/19 88/22/19
f 86/24/20 83/24/20 98/24/20
f 85/25/14 84/26/14 83/24/14
f 87/22/24 72/19/24 103/19/24
f 90/23/23 89/23/23 68/4/23
f 93/17/14 92/17/14 91/26/14
f 78/17/51 93/17/51 94/25/51
f 84/26/24 91/26/24 92/17/24
f 84/26/23 85/25/23 94/25/23
f 98/24/24 95/18/24 99/18/24
f 83/24/20 70/18/20 95/18/20
f 70/6/20 79/6/20 96/6/20
f 79/18/20 86/24/20 97/24/20
f 101/24/14 102/24/14 99/18/14
f 95/6/23 96/6/23 100/6/23
f 98/24/19 102/24/19 101/24/19
f 97/24/51 101/24/51 100/18/51
f 105/22/19 106/22/19 103/19/19
f 72/8/14 76/8/14 104/8/14
f 76/19/52 88/22/52 105/22/52
f 87/22/13 106/22/13 105/22/13
f 109/15/23 108/15/23 107/23/23
f 89/23/24 107/23/24 108/15/24
f 82/15/53 109/15/53 110/23/53
f 69/5/14 108/5/14 109/5/14
f 112/16/20 113/16/20 127/16/20
f 31/5/20 43/5/20 113/5/20
f 13/5/20 31/5/20 111/5/20
f 114/11/13 117/11/13 116/11/13
f 52/11/20 116/11/20 117/11/20
f 42/16/20 117/16/20 114/16/20
f 38/11/20 115/11/20 116/11/20
f 56/13/20 35/13/20 118/13/20
f 35/13/20 16/8/20 119/8/20
f 121/10/13 122/10/13 123/10/13
f 55/16/20 28/16/20 121/16/20
f 39/10/20 57/10/20 123/10/20
f 28/10/20 39/10/20 122/10/20
f 113/5/20 111/5/20 125/5/20
f 111/5/20 112/5/20 126/5/20
f 134/11/14 135/11/14 136/11/14
f 138/10/14 141/10/14 140/10/14
